<svg width="250" height="48" viewBox="0 0 250 48" fill="none" xmlns="http://www.w3.org/2000/svg">
<g clip-path="url(#clip0_78_2)">
<path d="M15.4033 12C-0.516719 12.2 2.24328 30.24 1.16328 39.84V40H5.56328C5.88328 36.68 5.40328 32.36 5.28328 28.16H15.4033V40H19.4033V12H15.4033ZM5.24328 27.28C5.12328 19.84 6.32328 13 15.4033 12.88V27.28H5.24328ZM30.007 40.28L32.967 39.52C42.167 37.16 44.767 20.68 42.327 12H37.927V12.16C38.927 13.72 43.327 35.92 32.967 38.6C33.207 36.52 32.687 34.32 32.207 32.4L27.007 12H22.807L30.007 40.28ZM59.4423 12C43.5223 12.2 46.2823 30.24 45.2023 39.84V40H49.6023C49.9223 36.68 49.4423 32.36 49.3223 28.16H59.4423V40H63.4423V12H59.4423ZM49.2823 27.28C49.1623 19.84 50.3623 13 59.4423 12.88V27.28H49.2823ZM67.2461 12C67.2461 23.72 66.6061 36.44 67.6061 40H72.2061V39.84C70.6461 37.12 68.1261 16.72 68.1261 12.88C68.6461 12.88 68.8061 13.84 69.9261 16.2L78.3261 34.28C80.6061 39.16 80.7261 40 81.9661 40H86.0461C86.0461 28.28 86.6861 15.56 85.6861 12H81.0861V12.2C82.6461 14.88 85.1661 35.28 85.1661 39.12C84.6861 39.12 84.0061 37.12 82.4061 33.68L73.9261 15.44C72.3261 12.04 72.4461 12 71.3261 12H67.2461ZM90.3873 12L89.6273 20H89.8673C90.6673 16.8 94.3473 13.32 98.9473 13.08C98.8673 16.92 98.2673 23.8 96.3873 39.84V40H102.587V39.84C100.707 23.8 100.107 16.96 100.027 13.08C104.587 13.4 108.187 16.8 108.987 20H109.227L108.467 12H90.3873ZM112.609 40H116.609V12H112.609V40ZM128.995 23.8C133.755 20.72 138.595 16.64 138.595 12H134.195V12.16C134.555 17.64 130.235 22.04 124.875 25.36L122.235 27C123.195 25.8 124.195 23.92 124.195 20.88V12H120.195V40H124.195V27L125.355 26.28C126.115 25.8 127.475 24.92 128.435 24.92C134.355 24.92 135.595 34.76 134.555 39.84V40H138.675C140.075 32.64 135.515 24.8 128.995 23.8ZM156.552 12C140.632 12.2 143.392 30.24 142.312 39.84V40H146.712C147.032 36.68 146.552 32.36 146.432 28.16H156.552V40H160.552V12H156.552ZM146.392 27.28C146.272 19.84 147.472 13 156.552 12.88V27.28H146.392ZM197.028 12H193.028V28.2C193.028 34.16 193.028 39.24 188.508 39.24C182.788 39.24 182.228 28.24 182.348 27.08L182.268 26.92L177.948 30C178.508 32.84 180.508 40.2 188.508 40.2C193.268 40.2 197.028 36.64 197.028 30V12ZM214.466 12C198.546 12.2 201.306 30.24 200.226 39.84V40H204.626C204.946 36.68 204.466 32.36 204.346 28.16H214.466V40H218.466V12H214.466ZM204.306 27.28C204.186 19.84 205.386 13 214.466 12.88V27.28H204.306ZM222.07 40H226.07V12H222.07V40ZM229.855 12C229.855 23.72 229.215 36.44 230.215 40H234.815V39.84C233.255 37.12 230.735 16.72 230.735 12.88C231.255 12.88 231.415 13.84 232.535 16.2L240.935 34.28C243.215 39.16 243.335 40 244.575 40H248.655C248.655 28.28 249.295 15.56 248.295 12H243.695V12.2C245.255 14.88 247.775 35.28 247.775 39.12C247.295 39.12 246.615 37.12 245.015 33.68L236.535 15.44C234.935 12.04 235.055 12 233.935 12H229.855Z" fill="white"/>
</g>
<defs>
<clipPath id="clip0_78_2">
<rect width="250" height="48" fill="white"/>
</clipPath>
</defs>
</svg>
