<svg width="32" height="32" viewBox="0 0 32 32" fill="none" xmlns="http://www.w3.org/2000/svg">
<g clip-path="url(#clip0_45_2)">
<rect width="32" height="32" fill="white"/>
<path d="M0 15.9992C0 7.16387 7.16387 0 15.9992 0C24.8345 0 32 7.16387 32 15.9992C32 24.8345 24.8362 31.9984 15.9992 31.9984C7.16222 31.9984 0 24.8362 0 15.9992Z" fill="white"/>
<path d="M14.1681 15.3642C14.1681 15.3642 15.9648 15.2307 15.9648 13.1224C15.9648 11.0141 14.4945 9.98389 12.6318 9.98389H6.50146V21.7665H12.6318C12.6318 21.7665 16.3736 21.8852 16.3736 18.2884C16.3736 18.2884 16.5368 15.3642 14.1681 15.3642V15.3642ZM9.20316 12.079H12.6318C12.6318 12.079 13.4642 12.079 13.4642 13.3054C13.4642 14.5318 12.9747 14.7082 12.4192 14.7098H9.20316V12.079V12.079ZM12.4736 19.6731H9.20316V16.5247H12.6318C12.6318 16.5247 13.873 16.5082 13.873 18.1434C13.873 19.5066 12.9648 19.6599 12.4736 19.6747V19.6731Z" fill="#1F1AEB"/>
<path d="M23.6938 10.678H18.8311V12.1286H23.6938V10.678Z" fill="#1F1AEB"/>
<path d="M21.3645 12.9824C16.8331 12.9824 16.838 17.5088 16.838 17.5088C16.838 17.5088 16.5265 22.0122 21.3645 22.0122C21.3645 22.0122 25.3964 22.243 25.3964 18.8786H23.3228C23.3228 18.8786 23.3904 20.1462 21.4337 20.1462C21.4337 20.1462 19.3601 20.2847 19.3601 18.0956H25.4657C25.4657 18.0956 26.1333 12.9807 21.3645 12.9807V12.9824ZM19.3386 16.5247C19.3386 16.5247 19.5908 14.7082 21.4123 14.7082C23.2338 14.7082 23.209 16.5247 23.209 16.5247H19.3386V16.5247Z" fill="#1F1AEB"/>
</g>
<defs>
<clipPath id="clip0_45_2">
<rect width="32" height="32" fill="white"/>
</clipPath>
</defs>
</svg>
