<svg width="32" height="32" viewBox="0 0 32 32" fill="none" xmlns="http://www.w3.org/2000/svg">
<g clip-path="url(#clip0_45_14)">
<rect width="32" height="32" fill="white"/>
<path d="M32 16C32 7.16344 24.8366 -1.08564e-06 16 -6.99382e-07C7.16344 -3.13124e-07 -1.08564e-06 7.16344 -6.99382e-07 16C-3.13124e-07 24.8366 7.16344 32 16 32C24.8366 32 32 24.8366 32 16Z" fill="white"/>
<path d="M25.1926 17.276V23.6434H21.5004V17.703C21.5004 16.2112 20.968 15.1926 19.6312 15.1926C18.6109 15.1926 18.0044 15.8783 17.7373 16.5426C17.6401 16.7799 17.6154 17.1096 17.6154 17.4425V23.6434H13.9232C13.9232 23.6434 13.9726 13.5806 13.9232 12.5388H17.6154V14.113C17.6088 14.1262 17.5972 14.1377 17.5906 14.1492H17.6154V14.113C18.1066 13.358 18.9818 12.2784 20.9433 12.2784C23.3729 12.2784 25.1942 13.8657 25.1942 17.2744L25.1926 17.276ZM10.0596 7.18848C8.79699 7.18848 7.97119 8.01757 7.97119 9.10709C7.97119 10.1966 8.77391 11.0257 10.0118 11.0257H10.0365C11.3238 11.0257 12.1249 10.1735 12.1249 9.10709C12.1002 8.01757 11.3238 7.18848 10.0612 7.18848H10.0596ZM8.19041 23.6451H11.8809V12.5405H8.19041V23.6451Z" fill="#1F1AEB"/>
</g>
<defs>
<clipPath id="clip0_45_14">
<rect width="32" height="32" fill="white"/>
</clipPath>
</defs>
</svg>
